<?xml version="1.0" standalone="no"?>
<!DOCTYPE svg PUBLIC "-//W3C//DTD SVG 20010904//EN"
 "http://www.w3.org/TR/2001/REC-SVG-20010904/DTD/svg10.dtd">
<svg version="1.0" xmlns="http://www.w3.org/2000/svg"
 width="2007.000000pt" height="2268.000000pt" viewBox="0 0 2007.000000 2268.000000"
 preserveAspectRatio="xMidYMid meet">

<g transform="translate(0.000000,2268.000000) scale(0.100000,-0.100000)"
 stroke="none">
<path fill="#ffbc00" d="M9845 22567 c-99 -57 -668 -385 -1265 -727 -597 -343 -1274 -732
-1505 -865 -231 -133 -622 -358 -870 -500 -247 -142 -639 -367 -870 -500 -231
-133 -1402 -806 -2602 -1496 -1201 -689 -2183 -1256 -2183 -1259 0 -3 102 -65
227 -137 126 -72 460 -265 743 -428 283 -164 792 -458 1130 -653 338 -195 832
-480 1098 -633 265 -154 700 -405 967 -559 267 -154 702 -405 968 -559 265
-153 759 -438 1097 -633 338 -195 818 -472 1065 -615 248 -143 700 -404 1005
-580 305 -176 697 -403 870 -503 173 -100 320 -182 325 -182 6 0 129 69 275
154 258 150 1247 725 2990 1738 470 273 1231 715 1690 982 459 267 1240 720
1735 1008 495 288 1276 741 1735 1008 459 267 879 511 932 541 74 43 94 59 85
67 -7 6 -230 137 -497 289 -267 153 -631 363 -810 465 -872 501 -1302 748
-1702 979 -241 138 -634 364 -873 501 -239 138 -632 363 -872 501 -241 139
-647 372 -903 519 -497 285 -821 471 -2780 1598 -802 461 -994 570 -1010 576
-9 4 -91 -38 -195 -97z"/>
<path fill="#ef8bb6" d="M19510 15696 c-294 -172 -996 -580 -1560 -908 -564 -328 -1412 -820
-1885 -1095 -473 -275 -1211 -704 -1640 -953 -429 -249 -1176 -683 -1660 -965
-484 -281 -1147 -666 -1472 -855 l-593 -345 0 -5282 0 -5282 188 108 c164 95
729 419 2472 1421 484 278 1302 748 3020 1736 558 320 1614 927 2345 1347
l1330 764 3 5312 c1 2921 -1 5311 -5 5310 -5 -1 -249 -142 -543 -313z"/>
<path  fill="#31b6a0" d="M5 10691 c0 -2915 2 -5301 5 -5304 3 -3 864 -499 1915 -1102 1051
-604 2122 -1219 2380 -1368 557 -320 1171 -673 1770 -1017 239 -137 631 -363
870 -500 239 -138 630 -362 868 -499 943 -542 1513 -869 1535 -880 l22 -12 0
5289 0 5289 -4492 2594 c-2471 1426 -4574 2640 -4673 2697 -99 58 -185 106
-190 108 -7 3 -10 -1764 -10 -5295z m2563 -821 l142 -82 0 -944 c0 -805 2
-944 14 -944 8 0 44 19 80 43 90 58 215 138 381 242 77 48 186 118 242 154 56
36 128 82 160 102 103 64 556 351 626 397 62 39 71 43 95 32 15 -6 123 -66
240 -133 116 -67 534 -306 927 -532 393 -225 715 -412 715 -415 0 -3 -49 -31
-108 -62 -213 -114 -405 -218 -477 -258 -16 -9 -70 -38 -120 -65 -49 -26 -128
-69 -175 -95 -47 -26 -132 -72 -190 -103 -58 -30 -127 -67 -155 -82 -110 -59
-408 -222 -537 -293 l-137 -75 23 -41 c13 -22 68 -117 122 -211 54 -93 121
-210 149 -260 88 -154 458 -793 535 -925 40 -69 160 -278 268 -465 108 -187
227 -394 266 -460 38 -66 121 -210 184 -320 136 -237 142 -248 306 -529 70
-120 125 -221 122 -224 -3 -2 -18 4 -33 14 -15 10 -441 255 -946 545 l-918
526 -80 149 c-44 82 -113 208 -153 279 -40 72 -105 189 -144 260 -62 114 -267
489 -328 600 -12 22 -100 184 -196 360 -96 176 -214 392 -263 480 -48 88 -114
207 -145 265 -94 172 -178 327 -257 473 -41 75 -79 137 -84 137 -5 0 -10 -421
-11 -1025 l-3 -1025 -805 461 c-443 253 -815 465 -827 470 l-23 9 0 2219 0
2219 688 -393 c378 -217 751 -430 830 -475z"/>
</g>
</svg>
