<?xml version="1.0" encoding="utf-8"?>
<!-- Generator: Adobe Illustrator 25.2.1, SVG Export Plug-In . SVG Version: 6.00 Build 0)  -->
<svg version="1.1" id="レイヤー_1" xmlns="http://www.w3.org/2000/svg" xmlns:xlink="http://www.w3.org/1999/xlink" x="0px"
	 y="0px" viewBox="0 0 512 512" style="enable-background:new 0 0 512 512;" xml:space="preserve">
<style type="text/css">
	.st0{fill:#008542;}
	.st1{fill:#FFFFFF;}
</style>
<g id="レイヤー_2_1_">
	<g id="レイヤー_1-2">
		<path class="st0" d="M271,0c9.5,1.3,19.2,2,28.6,4.1c17,3.8,33.9,8.5,50.8,12.8c0.9,0.3,1.8,0.8,2.7,1.3c-10,10-20.3,19-29,29.4
			c-7.5,8.9-14.7,10.5-26.3,8c-109-23.3-217.1,46.9-241.7,155.9C31,322.6,104,434.7,215.6,456.8c110.7,21.9,218.4-49.5,241-160.1
			c2.7-13.1,3.5-26.7,5.2-40.7H512v16c-0.4,1.3-0.7,2.5-0.8,3.9c-1.3,18.3-4.3,36.4-10.2,53.8c-33.1,97.9-100.1,157.6-201.5,178.5
			c-9.1,1.9-18.4,2.6-27.5,3.9h-32c-1.3-0.3-2.5-0.6-3.8-0.9c-16-2.8-32.6-3.8-48-8.6c-101-31.5-162.8-99.2-184.3-203
			C2,290.5,1.3,281.2,0,272v-32c0.3-1.4,0.6-2.9,0.9-4.4c2.8-16,3.9-32.6,8.7-48C41.2,86.9,108.8,25.3,212.4,3.9
			C221.5,2,230.8,1.3,240,0H271z"/>
		<path class="st1" d="M272,512c9.2-1.3,18.5-2,27.5-3.9c101.4-20.8,168.4-80.6,201.5-178.5c5.9-17.4,8.9-35.5,10.2-53.8
			c0.2-1.3,0.5-2.6,0.8-3.9v240L272,512L272,512z"/>
		<path class="st1" d="M240,0c-9.2,1.3-18.5,2-27.6,3.9C108.8,25.3,41.2,86.9,9.6,187.7c-4.8,15.4-5.9,32-8.7,48
			c-0.3,1.4-0.6,2.9-0.9,4.3V0H240z"/>
		<path class="st1" d="M0,272c1.3,9.2,2,18.5,3.9,27.6c21.5,103.8,83.3,171.5,184.3,202.9c15.4,4.8,32,5.8,48,8.6
			c1.3,0.2,2.6,0.6,3.8,0.9H0V272z"/>
		<path class="st0" d="M116.4,243c11.4-11.2,23.1-22.9,35.2-34.8l78.3,78.5l220-219.9l35.4,35.4L230.5,357L116.4,243z"/>
	</g>
</g>
</svg>
